<?xml version="1.0" encoding="UTF-8" standalone="no"?>
<!-- Created with Inkscape (http://www.inkscape.org/) -->

<svg
   xmlns:dc="http://purl.org/dc/elements/1.1/"
   xmlns:cc="http://creativecommons.org/ns#"
   xmlns:rdf="http://www.w3.org/1999/02/22-rdf-syntax-ns#"
   xmlns:svg="http://www.w3.org/2000/svg"
   xmlns="http://www.w3.org/2000/svg"
   xmlns:xlink="http://www.w3.org/1999/xlink"
   xmlns:sodipodi="http://sodipodi.sourceforge.net/DTD/sodipodi-0.dtd"
   xmlns:inkscape="http://www.inkscape.org/namespaces/inkscape"
   width="400"
   height="400"
   id="svg2"
   version="1.1"
   inkscape:version="0.48.3.1 r9886"
   sodipodi:docname="clock.svg">
  <defs
     id="defs4">
    <inkscape:perspective
       sodipodi:type="inkscape:persp3d"
       inkscape:vp_x="0 : 526.18109 : 1"
       inkscape:vp_y="0 : 1000 : 0"
       inkscape:vp_z="744.09448 : 526.18109 : 1"
       inkscape:persp3d-origin="372.04724 : 350.78739 : 1"
       id="perspective10" />
    <inkscape:perspective
       id="perspective2824"
       inkscape:persp3d-origin="0.5 : 0.33333333 : 1"
       inkscape:vp_z="1 : 0.5 : 1"
       inkscape:vp_y="0 : 1000 : 0"
       inkscape:vp_x="0 : 0.5 : 1"
       sodipodi:type="inkscape:persp3d" />
  </defs>
  <sodipodi:namedview
     id="base"
     pagecolor="#ffffff"
     bordercolor="#666666"
     borderopacity="1.0"
     inkscape:pageopacity="0.0"
     inkscape:pageshadow="2"
     inkscape:zoom="2.8284271"
     inkscape:cx="238.79678"
     inkscape:cy="233.90231"
     inkscape:document-units="px"
     inkscape:current-layer="layer3"
     showgrid="false"
     inkscape:window-width="1280"
     inkscape:window-height="725"
     inkscape:window-x="0"
     inkscape:window-y="25"
     inkscape:window-maximized="1" />
  <metadata
     id="metadata7">
    <rdf:RDF>
      <cc:Work
         rdf:about="">
        <dc:format>image/svg+xml</dc:format>
        <dc:type
           rdf:resource="http://purl.org/dc/dcmitype/StillImage" />
      </cc:Work>
    </rdf:RDF>
  </metadata>
  <g
     inkscape:label="Hintergrund"
     inkscape:groupmode="layer"
     id="layer1"
     style="display:inline"
     transform="translate(0,-652.36218)"
     sodipodi:insensitive="true">
    <g
       style="display:inline"
       id="g3610"
       transform="translate(-101.01526,603.06108)">
      <image
         xlink:href="file:///home/user/Arbeitsfläche/codestore/Sonstiges/clock.png"
         width="256"
         height="256"
         id="image2826"
         x="174.85715"
         y="121.50503" />
    </g>
    <path
       inkscape:connector-curvature="0"
       style="opacity:0.25;fill:#0000ff;fill-opacity:1;stroke:none;display:inline"
       d="m 234.45432,809.46795 -69.47525,0.66114 0.33911,45.54638 69.64917,1.36552 z"
       id="rect2831-0"
       sodipodi:nodetypes="ccccc" />
  </g>
  <g
     inkscape:groupmode="layer"
     id="layer6"
     inkscape:label="c14700_5_rand"
     sodipodi:insensitive="true" />
  <g
     inkscape:groupmode="layer"
     id="layer5"
     inkscape:label="d65800_4_rand"
     sodipodi:insensitive="true" />
  <g
     inkscape:groupmode="layer"
     id="layer4"
     inkscape:label="ee7200_3_rand"
     sodipodi:insensitive="true" />
  <g
     inkscape:groupmode="layer"
     id="layer3"
     inkscape:label="fd8e00_2_rand"
     style="display:inline">
    <path
       style="opacity:0.25;fill:#008000;fill-opacity:1;stroke:none;display:inline"
       d="m 269.03212,92.682298 c 10.32214,6.354622 11.95287,10.019582 11.82036,11.469552 -0.20795,2.27553 3.51672,3.36176 3.4578,4.75312 -0.0516,1.21969 -0.48061,2.29371 0.52126,3.84612 1.06092,1.6439 1.5271,3.12723 0.19874,4.22205 -1.22205,1.0072 -0.85907,1.90603 -1.09939,2.9171 -0.62271,2.61989 -3.48968,3.9134 -5.78569,2.38418 -3.46383,-2.30704 -3.24635,-1.21199 -4.78298,-1.92733 -1.13443,-0.52811 -1.85212,-1.36093 -2.74078,-2.60463 -6.0708,-8.49621 -17.2616,-17.1072 -29.18394,-17.58621 3.24202,-1.365488 9.55964,-3.414588 11.6875,-0.15625 0.82551,1.26407 5.63014,-0.330918 5.875,-1.374998 0.33196,-1.41549 -8.99537,-4.58396 -10.5,-8.875 -3.88909,-11.136932 14.64484,-0.69209 20.53212,2.932296 z"
       id="rect2831-6"
       inkscape:connector-curvature="0"
       sodipodi:nodetypes="ssssssssscsscs" />
    <path
       style="opacity:0.25;fill:#008000;fill-opacity:1;stroke:none;display:inline"
       d="m 240.48699,132.56354 11.6875,-0.15625 5.875,-1.375 -10.5,-8.875 z"
       id="rect2831-6-8"
       inkscape:connector-curvature="0"
       sodipodi:nodetypes="ccccc" />
  </g>
  <g
     inkscape:groupmode="layer"
     id="layer2"
     inkscape:label="feb700_1_rand"
     transform="translate(0,-652.36218)"
     style="display:inline"
     sodipodi:insensitive="true">
    <path
       style="opacity:0.25;fill:#0000ff;fill-opacity:1;stroke:none"
       d="m 191.3125,74.375 c -3.29261,0.345557 -14.2163,5.78183 -20.875,6.09375 -2.65121,1.04863 -26.05534,9.38434 -29.9375,12.40625 -10.19691,7.93737 -4.9995,2.85636 -8.25,2.84375 -2.03104,-0.008 -26.8269,16.19506 -27.09375,26.53125 0,0 -13.631427,14.80768 -13.75,23.53125 -0.04983,3.66591 -4.98807,14.90273 -3.5,24.09375 L 93.25,156.125 c -1.050403,7.96555 -1.514167,11.65686 0.3125,11.40625 6.6051,-0.9062 17.9777,-13.74069 18.28125,-20.5625 0.20499,-4.60675 13.20421,-21.20137 25.4375,-31.53125 3.26976,-2.76101 5.95503,-1.38807 6.78125,-2.3125 1.313,-1.31301 8.34358,-5.06838 8.78125,-6.03125 2.01327,-5.33954 18.84341,-5.50571 19.71875,-6.90625 5.36225,-6.54449 36.18028,-5.49294 38.71875,-7.59375 3.94737,-3.18237 1.46117,-2.62444 6.40625,-2.3125 0.75379,0.90938 -2.9932,3.79238 -1.8125,4.28125 11.009,4.55833 14.59453,3.2333 17.625,1.125 4.08106,-2.8392 11.625,-4.15625 11.625,-4.15625 0,0 -11.54363,4.95451 -12.15625,6.71875 -0.72029,2.07431 5.79871,3.03083 8.46875,1.90625 3.24202,-1.36549 9.55964,-3.41459 11.6875,-0.15625 0.82551,1.26407 5.63014,-0.33092 5.875,-1.375 0.33196,-1.41549 -8.99537,-4.58396 -10.5,-8.875 -0.81298,-2.31855 -1.17329,-5.46307 -18.71875,-5.28125 0,0 2.1129,-3.05157 -0.0313,-5 -2.68907,-2.44377 -6.961,0.13734 -8.71875,-2.125 -1.94029,-2.49728 -5.65136,-1.5925 -10.59375,-2.03125 -15.0549,-0.63474 -12.15243,8.40973 -18.21875,-0.75 -0.12455,-0.188064 -0.43588,-0.236865 -0.90625,-0.1875 z M 174.90625,84 c -0.50835,0.957741 -8.10786,3.285494 -8.75,2.953125 0.63962,-0.921001 7.66909,-3.014643 8.75,-2.953125 z m 7.65625,7.65625 c -0.54482,1.255829 -13.38704,8.209593 -15.8125,7.3125 0.58062,-1.918987 13.01062,-7.13435 15.8125,-7.3125 z m -74.1875,32.8125 2.28125,1 -6.875,7.5 z m 6.5,3.875 -9.59375,10.9375 0.21875,-2.3125 z m -19.75,20.84375 -2.46875,3.28125 0.90625,-4.25 z m 2.9375,7.125 -3.09375,3.78125 1.59375,-4.625 z"
       transform="translate(0,652.36218)"
       id="rect2831"
       inkscape:connector-curvature="0"
       sodipodi:nodetypes="ccsccsccssscccccsscsssssccscssccccccccccccccccccccccc" />
    <path
       inkscape:connector-curvature="0"
       style="opacity:0.25;fill:#0000ff;fill-opacity:1;stroke:none"
       d="m 104.57136,819.9394 c -1.75521,-6.45428 -20.311318,16.95649 -21.166597,18.68136 -1.307517,10.52749 17.516907,-10.20638 17.516907,-10.20638 l -8.515989,11.51124 c 0,0 -0.89009,1.51364 0.282601,4.5961 0.669151,1.75889 -5.565518,8.01276 -5.064498,10.98297 0.439152,2.60344 3.542387,7.3676 5.231348,5.41043 5.49943,-6.37278 0.511203,-10.65253 10.890178,-27.05391 -0.0927,-8.68306 3.69636,-12.34573 0.82605,-13.92181 z"
       id="rect2831-0-4"
       sodipodi:nodetypes="ccccscscc" />
    <path
       inkscape:connector-curvature="0"
       style="opacity:0.25;fill:#0000ff;fill-opacity:1;stroke:none;display:inline"
       d="m 102.8324,848.14281 c -1.18141,-0.85622 -3.503309,5.07354 -3.503309,5.07354 0,0 5.280309,-3.78565 3.503309,-5.07354 z"
       id="rect2831-0-1"
       sodipodi:nodetypes="scs" />
  </g>
</svg>
